<svg width="1149" height="71" viewBox="0 0 1149 71" fill="none" xmlns="http://www.w3.org/2000/svg">
<g clip-path="url(#clip0_7009_150)">
<path d="M1430 94.989C1430 94.9951 1430 95 1429.99 95C1429.98 95 1429.98 94.9953 1429.98 94.9894C1429.45 81.6509 1418.47 71 1405 71H1146.52C1141.45 71 1137.3 67.1673 1135.81 62.3261C1129.54 41.8724 1110.51 27 1088 27H61C38.492 27 19.4585 41.8724 13.1889 62.3261C11.705 67.1673 7.54564 71 2.48211 71H-465C-478.469 71 -489.448 81.6509 -489.978 94.9894C-489.978 94.9953 -489.983 95 -489.989 95C-489.995 95 -490 94.9951 -490 94.989V10C-490 4.47715 -485.523 0 -480 0H1420C1425.52 0 1430 4.47715 1430 10V94.989Z" fill="#7027E2"/>
</g>
<defs>
<clipPath id="clip0_7009_150">
<rect width="1149" height="71" fill="white"/>
</clipPath>
</defs>
</svg>
